<svg xmlns="http://www.w3.org/2000/svg" width="550" height="220" viewBox="0 0 550 220">
  <defs>
    <pattern id="stripe" 
      width="50" height="50" 
      patternUnits="userSpaceOnUse"
      patternTransform="rotate(45)">
      <rect width="25" height="50" transform="translate(0,0)" fill="rgba(255, 255, 255, 0.08)"></rect>
    </pattern>
  </defs>
  <g>
    <polygon stroke-linejoin="round" points="188,65 140,58 110,20 80,58 32,65 50,110 32,155 80,162 110,200 140,162 188,155 170,110" fill="#FF8DC6" stroke="#FF8DC6" stroke-width="20" />
    <polygon stroke-linejoin="round" points="200,110 162,80 155,32 110,50 65,32 58,80 20,110 58,140 65,188 110,170 155,188 162,140" fill="#EF5FA7" stroke="#EF5FA7" stroke-width="20" />
    <rect x="20" y="20" width="180" height="180" fill="url(#stripe)" />
  </g>
  <g font-family="Apple Chancery" font-size="72"><text x="260" y="136" fill="#EF5FA7"><tspan font-weight="100">confeito</tspan></text></g>
</svg>
